<svg width="179" height="55" fill="none" xmlns="http://www.w3.org/2000/svg"><path d="M15.601 0h7.957c-.003 3.122.025 6.244-.013 9.366-.027 3.21-.005 6.419-.012 9.628-2.646.007-5.294-.005-7.942.006-.051-1.928-.008-3.858-.022-5.785.005-.831-.017-1.66.018-2.49.032-3.575.005-7.15.014-10.725z" fill="#87D1CE"/><path d="M28.566 5c2.666.002 5.332 0 7.998.002-.004 4.442.009 8.885-.006 13.328-.038 2.22 0 4.442-.02 6.664-2.657.005-5.314.013-7.971-.005-.004-5.211 0-10.424-.001-15.635V5z" fill="#7FBC3D"/><path d="M5.572 7.002C7.57 7 9.565 7 11.562 7.002c0 1.2.02 2.402-.04 3.601.006 4.466-.015 8.932.01 13.397-1.988-.002-3.978.001-5.967-.001.02-1.847.007-3.694.007-5.54V7.001z" fill="#40C8F4"/><path d="M23.579 9h4.984c.001 5.515-.003 11.031.001 16.547l.001.04c-.005 2.47.001 4.939-.004 7.408-1.663.006-3.327.008-4.99 0-.001-4.865.005-9.73-.004-14.596.007-3.133-.015-6.266.012-9.399z" fill="#00AA4F"/><path d="M10.609 11c1.644.005 3.288-.004 4.932.005-.034.785-.013 1.571-.018 2.358.014 1.825-.028 3.652.021 5.477.035 3.03.017 6.058.01 9.087h-.015c-.761.021-1.523-.073-2.283-.018-.869.053-1.74.01-2.61-.01-.05 2.75-.008 5.501-.022 8.253-.013 1.95.029 3.9-.022 5.848h-.037c.034-3.081.005-6.163.015-9.244-.006-2.9.014-5.8.008-8.7.019-4.351-.022-8.704.02-13.056z" fill="#3AC0BE"/><path d="M41.597 15.002c1.655-.004 3.31 0 4.967 0 .003 3.33 0 6.661 0 9.993-1.656.01-3.313.002-4.97.004-.053-.868-.015-1.737-.026-2.607.009-1.383-.019-2.768.017-4.151.027-1.079.004-2.16.012-3.239z" fill="#C1DFA4"/><path d="M15.565 19.006c2.665-.01 5.33 0 7.995-.006.01 4.731.003 9.462.004 14.194-.01 6.267.007 12.536-.008 18.804-2.661.002-5.323.001-7.983.002.002-7.96-.006-15.922.002-23.883.008-3.037.027-6.074-.01-9.111z" fill="#00908F"/><path d="M36.406 19.007c1.705-.003 3.41.008 5.117-.007-.037 1.388-.008 2.777-.017 4.166.011.872-.028 1.744.027 2.616.04 1.404.047 2.814-.004 4.218-1.713-.008-3.426-.003-5.14-.003 0-1.411.002-2.822 0-4.233-2.607-.001-5.215-.002-7.823 0v-.038c2.606.018 5.214.01 7.82.004.02-2.241-.017-4.483.02-6.723z" fill="#ACD36A"/><path d="M.565 19.029c1.665-.057 3.331-.01 4.996-.022 0 1.686.012 3.371-.006 5.057-.02 2.979.017 5.957-.018 8.936-1.658-.002-3.314 0-4.972-.001v-13.97z" fill="#8DD8F8"/><path d="M58.584 19.128l.205-.128c3.412.006 6.822-.003 10.233.005.385-.007.32.46.325.707-.046.726.09 1.467-.09 2.178-2.303.035-4.607-.003-6.91.02-.036 1.482-.019 2.965-.009 4.448 1.922.014 3.845.002 5.767.005l.236.115c.018.855.007 1.711.006 2.569-.15.04-.3.087-.457.085-1.85.005-3.7-.01-5.55.008-.025 1.62-.005 3.239-.01 4.86.22.035.443.064.67.06 2.037-.017 4.075 0 6.114-.004.154.014.37-.03.434.15.029.846.014 1.696.008 2.544.019.174-.18.264-.337.244-3.432.003-6.864.003-10.295 0-.222.04-.394-.138-.352-.343.007-5.842-.017-11.683.012-17.523zm13.983.287c-.013-.152.062-.284.128-.415 1.053.012 2.108-.006 3.162.008.278-.02.302.299.308.496.002 3.817.003 7.634 0 11.452.028.68-.107 1.413.243 2.04.195.405.586.667.991.849.798.236 1.641.242 2.466.184.618-.07 1.296-.237 1.694-.744.41-.491.45-1.153.48-1.757l-.001-8.583c.014-1.276-.028-2.557.02-3.832l.142-.096c1.076-.03 2.154-.01 3.231-.008l.133.2.001 13.653c-.02.906-.376 1.811-1.036 2.459-.868.866-2.09 1.28-3.285 1.497-1.524.252-3.09.233-4.615 0-1.149-.2-2.344-.582-3.145-1.456-.648-.703-.92-1.664-.915-2.596-.004-4.45-.001-8.9-.002-13.351zm49.004.691c.007-.368-.055-.753.113-1.1 1.697-.002 3.394.011 5.091-.006.321.382.424.872.606 1.32 1.475 3.898 2.956 7.797 4.43 11.697.046.154.153.26.341.238.099-.13.096-.292.099-.443-.007-4.096.001-8.192-.004-12.288.001-.134.001-.27.038-.4.134-.165.365-.106.555-.12.748.008 1.496.002 2.245.002.161-.004.317.043.473.084.012 5.368.002 10.738.005 16.106-.007.592.021 1.184-.025 1.774-1.576.054-3.155.017-4.731.021-.228.024-.329-.196-.396-.36-.956-2.478-1.923-4.952-2.891-7.426-.685-1.789-1.393-3.57-2.079-5.359a3.189 3.189 0 00-.333-.64l-.263.052c-.023 4.492.002 8.985-.012 13.478.026.185-.184.279-.35.257-.938.004-1.876.01-2.814-.007-.149-.353-.091-.74-.098-1.11v-15.77zm17.004-.98l.18-.126c3.108.007 6.216-.004 9.324.005.214-.026.299.23.292.411.007.743 0 1.488 0 2.232a24.16 24.16 0 01-.102.237c-2.088.046-4.178-.002-6.267.024-.029 1.483-.016 2.967-.007 4.45 1.75.01 3.501.002 5.251.004.053.03.159.087.212.115.017.845.015 1.69.002 2.535l-.191.12c-1.758-.002-3.517-.008-5.274.004-.016 1.617-.007 3.235-.005 4.852l.315.068c1.397.006 2.796-.009 4.191-.018.525.012 1.055.054 1.579-.022.125.025.256.041.384.078.131.094.095.273.106.416-.004.756-.005 1.513-.001 2.27l-.111.201c-3.159.031-6.318.004-9.477.014-.174.018-.437-.024-.407-.265 0-5.868-.012-11.737.006-17.605zm12.717-.112c1.124-.003 2.249-.007 3.374 0 .304-.016.473.268.609.49.903 1.522 1.828 3.032 2.729 4.556a6.59 6.59 0 01.138-.01c.872-1.511 1.769-3.008 2.641-4.52.108-.202.257-.38.435-.53 1.138.026 2.276 0 3.415.015l.168.223c-1.547 2.733-3.2 5.408-4.765 8.131.236.532.584 1.011.871 1.52 1.528 2.568 3.06 5.135 4.588 7.704.099.133.117.38-.105.39-1.107.029-2.218.006-3.325.012a.504.504 0 01-.483-.251c-1.237-1.995-2.404-4.033-3.661-6.015-1.152 2.007-2.285 4.026-3.441 6.03-.151.308-.531.227-.81.239-.994-.021-1.991.03-2.981-.024-.031-.033-.092-.098-.124-.13.238-.613.643-1.149.942-1.734 1.468-2.578 2.968-5.142 4.413-7.732-1.541-2.737-3.211-5.41-4.771-8.138l.143-.226zm15.275.51c.002-.198-.012-.544.272-.514 3.564-.013 7.131.001 10.696-.007.343-.004.691-.016 1.03.068v2.82c-1.416.04-2.835-.005-4.252.025-.016 4.912 0 9.825-.008 14.736.031.2-.127.38-.326.341-1.017.007-2.034.015-3.05-.01-.14-.812-.042-1.641-.07-2.461-.008-4.204.017-8.407-.013-12.61-1.41-.019-2.821.013-4.231-.018-.085-.787-.032-1.58-.048-2.37z" fill="#008D7F"/><path fill-rule="evenodd" clip-rule="evenodd" d="M89.01 18.55l-.1.064c-.026.436-.023.872-.02 1.309.001.227.003.455 0 .682v15.88c-.01.143.044.278.097.409l.013.033c.301 0 .603.003.904.005.844.006 1.688.013 2.531-.019l.11-.232c.003-.862.001-1.724 0-2.587-.003-1.369-.005-2.738.012-4.107.573-.022 1.146-.018 1.72-.014l.597.003c.113.152.22.307.312.475.541 1.058 1.077 2.12 1.612 3.18.553 1.095 1.105 2.19 1.664 3.281a68.46 68.46 0 004.053-.005c-.101-.338-.278-.645-.452-.949-.452-.828-.901-1.657-1.35-2.486-.71-1.31-1.419-2.62-2.139-3.924-.143-.263-.295-.684.018-.886.593-.386 1.186-.807 1.594-1.397.691-.976.867-2.213.842-3.383.018-.83.003-1.683-.297-2.47-.329-1.012-1.117-1.85-2.09-2.273-1.383-.63-2.942-.66-4.435-.652h-1.854c-1.081 0-2.162 0-3.244-.002l-.098.065zm4.399 2.598a24.09 24.09 0 01-.849.01c-.025 2.112-.029 4.227.002 6.34.712.024 1.426.02 2.139 0 .703-.036 1.46-.235 1.935-.792.482-.593.608-1.39.615-2.134l.002-.226c.008-.748.017-1.526-.336-2.205-.25-.5-.784-.78-1.312-.881-.723-.143-1.46-.127-2.196-.112zm16.17-2.871c-1.222.076-2.501.34-3.462 1.146-.746.6-1.183 1.486-1.495 2.372-.498 1.436-.718 2.955-.783 4.469-.134 1.386-.024 2.782.092 4.165.193 1.591.513 3.218 1.344 4.612.663 1.107 1.88 1.773 3.13 1.979 1.473.245 2.982.23 4.467.1 1.268-.122 2.597-.53 3.452-1.528.81-.951 1.229-2.177 1.478-3.386l.038-.072c.442-2.294.498-4.649.286-6.972-.235-1.794-.548-3.691-1.671-5.169-.802-1.063-2.131-1.531-3.41-1.68-.206-.02-.413-.03-.62-.039a8.018 8.018 0 01-.76-.056c-.466-.039-.93-.008-1.394.022-.231.015-.462.03-.692.037zm.995 2.96c-.766-.003-1.738.025-2.19.755-.455.853-.564 1.826-.671 2.778-.015.13-.029.262-.045.392a60.44 60.44 0 01-.043.85c-.054 1.006-.109 2.012-.012 3.017l.001.026c.061 1.384.124 2.81.633 4.117.179.507.654.839 1.172.928 1.1.156 2.232.175 3.327-.03.597-.11 1-.63 1.157-1.188.385-1.274.48-2.617.521-3.94.106-1.593-.004-3.19-.167-4.775-.036-.167-.065-.338-.096-.512-.124-.718-.254-1.466-.783-1.989-.612-.454-1.375-.44-2.115-.426-.234.004-.466.008-.689-.002z" fill="#008D7F"/><path d="M5.607 24c1.652.002 3.305-.001 4.957.001.006 2.909-.014 5.817-.008 8.726-.01 3.09.019 6.18-.015 9.271-1.64 0-3.282-.005-4.924.002-.09-.883-.032-1.772-.046-2.659.012-2.097-.025-4.195.018-6.291.034-3.017-.002-6.033.018-9.05z" fill="#00AEEF"/><path d="M41.592 25.005c1.658-.003 3.315.006 4.973-.005v12H41.6c-.063-.94-.018-1.883-.031-2.823.012-1.611-.025-3.222.019-4.832.048-1.445.042-2.895.004-4.34z" fill="#73C15B"/><path d="M28.573 25.001c2.656-.002 5.312 0 7.968 0v4.435c.012 4.082-.021 8.163.017 12.245.014 2.106.003 4.212.006 6.319h-7.975c-.046-2.316-.01-4.634-.02-6.95.003-2.883-.003-5.766 0-8.649.005-2.466-.001-4.933.004-7.4z" fill="#008172"/><path d="M10.621 28.007c.878.021 1.757.065 2.635.01.768-.055 1.537.04 2.305.02.007 6.654 0 13.308.004 19.962-1.666 0-3.332.002-4.998 0 .006-1.91-.013-3.821.009-5.73.051-1.971.009-3.944.022-5.915.014-2.783-.028-5.565.023-8.347z" fill="#00A8A7"/><path d="M36.568 30.002c1.656 0 3.31-.005 4.967.002-.044 1.607-.007 3.214-.02 4.821.014.939-.032 1.88.032 2.817.037 1.452.005 2.904.015 4.357-1.66 0-3.319-.002-4.979.001-.036-4-.005-7.999-.015-11.998z" fill="#00A34C"/><path d="M23.573 33c1.656.008 3.313.006 4.969 0-.003 2.814.003 5.628 0 8.442.01 2.262-.024 4.524.02 6.785.007 2.257 0 4.515.002 6.773H23.57c-.002-1.048.005-2.097-.004-3.146.015-6.284 0-12.57.008-18.854z" fill="#006864"/><path d="M.565 33H5.51c-.044 2.044-.006 4.089-.019 6.133.015.863-.045 1.73.047 2.59.047.758.024 1.519.01 2.277-1.66-.003-3.321 0-4.982-.002V33z" fill="#2AC4F4"/></svg>