<svg width="258" height="38" fill="none" xmlns="http://www.w3.org/2000/svg"><path d="M127.921 14.55a2.87 2.87 0 002.868-2.87 2.87 2.87 0 00-2.868-2.872 2.87 2.87 0 00-2.868 2.871 2.87 2.87 0 002.868 2.871z" fill="#3C7AD2"/><path d="M16.726 11.695C16.726 6.24 14.07 1.547 12.05.02c-.009-.005-.155-.087-.143.131l-.002.007c-.168 10.534-5.545 13.39-8.5 17.236C-3.418 26.268 2.927 36 9.387 37.798c3.615 1.006-.835-1.78-1.408-7.667-.693-7.115 8.746-12.546 8.746-18.436z" fill="#D7E2F2"/><path d="M20.27 15.282c-.044-.029-.107-.048-.15.02-.119 1.326-1.563 4.162-3.394 6.767-6.21 8.835-2.671 13.094-.681 15.382 1.155 1.328 0 0 2.887-1.357.227-.107 5.635-2.951 6.22-9.432.568-6.275-3.451-10.231-4.882-11.38z" fill="#3C7AD2"/><path d="M48.77 8.846v11.06H37.788V10.28c0-.792-.642-1.434-1.433-1.434h-3.707V35.32c0 .792.642 1.434 1.433 1.434h3.707V24.4H48.77v10.92c0 .792.642 1.434 1.433 1.434h3.706V10.28c0-.792-.641-1.434-1.432-1.434H48.77zm21.794 6.92V29.03c0 1.205-.614 2.348-1.657 2.95-2.91 1.684-5.921-.418-5.921-3.19V17.2c0-.792-.642-1.434-1.433-1.434h-3.721v13.496c0 4.343 3.55 7.896 7.888 7.896h2.11c4.338 0 7.888-3.553 7.888-7.896V17.2c0-.791-.64-1.433-1.432-1.433h-3.722z" fill="#D7E2F2"/><path d="M126.784 36.752h3.706V17.968c0-.792-.641-1.434-1.432-1.434h-3.707v18.784c0 .792.642 1.434 1.433 1.434z" fill="#3C7AD2"/><path d="M93.637 28.276c0 2.552-2.087 4.251-4.636 4.251-2.55 0-4.636-1.699-4.636-4.25v-3.642c0-2.552 2.086-4.251 4.636-4.251 2.55 0 4.636 1.699 4.636 4.25v3.642zM89 15.753c-5.39 0-9.802 3.86-9.802 9.255v2.918c0 5.396 4.411 9.232 9.802 9.232 5.39 0 9.801-3.836 9.801-9.232v-2.918c0-5.395-4.41-9.255-9.801-9.255z" fill="#D7E2F2"/><path d="M116.719 28.277c0 2.552-2.086 4.25-4.636 4.25-2.55 0-4.636-1.698-4.636-4.25v-3.642c0-2.552 2.086-4.251 4.636-4.251 2.55 0 4.636 1.699 4.636 4.25v3.643zm-4.636-12.524c-1.684 0-3.274.377-4.662 1.06v-6.506c0-.791-.642-1.433-1.433-1.433h-3.706v19.053c0 5.395 4.41 9.231 9.801 9.231s9.802-3.836 9.802-9.232v-2.918c0-5.395-4.411-9.255-9.802-9.255z" fill="#3C7AD2"/><path d="M218.336 28.238c0 2.552-2.087 4.25-4.636 4.25-2.55 0-4.636-1.698-4.636-4.25v-3.642c0-2.552 2.086-4.25 4.636-4.25 2.549 0 4.636 1.698 4.636 4.25v3.642zM213.7 15.714c-1.685 0-3.274.377-4.662 1.06v-6.505c0-.792-.641-1.434-1.433-1.434h-3.706v19.053c0 5.395 4.41 9.232 9.801 9.232s9.801-3.837 9.801-9.232v-2.919c0-5.395-4.41-9.255-9.801-9.255zm-48.304 4.526h-10.049v2.74a1.49 1.49 0 001.49 1.491h4.773v2.423c0 1.787-.446 3.107-1.367 4.036-1.132 1.17-2.697 1.788-4.528 1.788-1.648 0-3.219-.572-4.198-1.529-1.361-1.336-1.655-2.786-1.655-8.17 0-5.354.294-6.798 1.655-8.132 1.004-.982 2.964-1.724 4.588-1.724 5.493 0 7.338 1.951 8.714 3.728.021-.002.18 0 .18 0v-3.973c0-.588-.28-1.137-.738-1.503-2.302-1.844-4.595-2.518-8.546-2.518-3.189 0-5.918 1.004-8.107 2.983-3.023 2.732-3.022 5.814-3.022 10.92v.436c0 5.107-.001 8.19 3.022 10.921 2.159 1.952 4.963 2.983 8.107 2.983 3.304 0 6.212-1.113 8.409-3.218h.001c1.961-1.886 2.761-5.496 2.761-9.25V21.73a1.49 1.49 0 00-1.49-1.49zm14.865 16.767v-3.264c0-.772-.624-1.398-1.396-1.395-.781.002-1.761.005-2.589.005-2.11 0-2.011-1.056-2.011-3.792V10.238c0-.77-.624-1.395-1.394-1.395h-3.802v20.343c0 4.927 1.269 7.82 6.582 7.82 2.053 0 3.542-.058 4.61.001zm77.304.098v-3.263c0-.773-.625-1.398-1.397-1.396-.781.003-1.76.006-2.588.006-2.11 0-2.011-1.056-2.011-3.793V10.336c0-.77-.624-1.395-1.394-1.395h-3.802v20.343c0 4.927 1.269 7.821 6.582 7.821 2.053 0 3.542-.058 4.61 0zm-60.989-8.91c0 2.552-2.086 4.25-4.636 4.25-2.549 0-4.635-1.698-4.635-4.25v-3.642c0-2.552 2.086-4.25 4.635-4.25 2.55 0 4.636 1.698 4.636 4.25v3.642zm-4.635-12.524h-.001c-5.39 0-9.801 3.86-9.801 9.255v2.919c0 5.395 4.411 9.232 9.801 9.232h.001c5.39 0 9.801-3.837 9.801-9.232v-2.919c0-5.395-4.411-9.255-9.801-9.255zm46.705 11.789v5.37c-.401.078-.844.14-1.323.184-1.176.11-2.23.131-3.454.02a3.69 3.69 0 01-1.314-.361 2.514 2.514 0 01-.949-.824c-.246-.346-.37-.857-.37-1.519 0-1.03.367-1.769 1.123-2.257.805-.52 2.024-.785 3.623-.785.432 0 .957.025 1.579.074.407.033.769.065 1.085.098zm2.78-9.898c-1.54-1.23-3.792-1.855-6.694-1.855-1.078 0-2.212.079-3.37.234-.929.124-2.244.301-3.155.512-.37.085-.438.375-.438.724v2.776c0 .495.006.945.529.818.976-.238 2.87-.659 3.385-.744a16.326 16.326 0 012.632-.201c1.454 0 2.562.26 3.294.772.688.482 1.037 1.4 1.037 2.727v.161a33.348 33.348 0 00-.853-.067 34.468 34.468 0 00-2.227-.06c-1.237 0-2.434.14-3.559.418-1.142.281-2.169.717-3.052 1.295a6.738 6.738 0 00-2.141 2.224c-.528.894-.795 1.941-.795 3.11 0 1.189.229 2.223.68 3.074a5.78 5.78 0 001.941 2.127c.82.545 1.827.945 2.991 1.187 1.132.236 2.414.355 3.81.355 1.016 0 8.338-.103 8.338-3.59V23.476c0-2.675-.792-4.665-2.353-5.915z" fill="#D7E2F2"/></svg>