<svg width="239" height="38" fill="none" xmlns="http://www.w3.org/2000/svg"><path d="M52.36.885h5.752v15.211L73.546.885h7.688L67.516 14.16l14.547 22.512h-7.689L63.091 18.475l-4.978 4.756v13.441H52.36V.885zm32.8 0h5.698V7.08c.442-1.217 1.604-2.655 3.429-4.37 1.825-1.714 3.927-2.6 6.306-2.6.11 0 .276 0 .553.056.276 0 .719.055 1.383.11v6.361c-.332-.055-.664-.11-.996-.11-.277 0-.608-.055-.996-.055-3.042 0-5.365.995-6.97 2.931-1.603 1.936-2.433 4.204-2.433 6.748v20.577h-6.029V.885h.055zm39.881 14.105c1.383-.166 2.323-.775 2.765-1.715.277-.553.388-1.327.388-2.323 0-2.047-.719-3.54-2.213-4.48-1.438-.94-3.54-1.383-6.25-1.383-3.153 0-5.366.83-6.693 2.544-.719.94-1.217 2.323-1.438 4.204h-5.642c.111-4.425 1.549-7.523 4.314-9.237 2.766-1.715 5.919-2.6 9.57-2.6 4.203 0 7.633.83 10.232 2.434 2.6 1.604 3.928 4.093 3.928 7.467v20.632c0 .608.11 1.106.387 1.493.276.387.774.553 1.604.553.276 0 .553 0 .885-.055.332-.056.663-.11 1.051-.166v4.425c-.941.276-1.66.442-2.158.498a17.75 17.75 0 01-1.991.11c-2.046 0-3.595-.719-4.535-2.212-.498-.775-.83-1.88-1.051-3.319-1.217 1.604-2.987 2.987-5.255 4.204-2.323 1.161-4.812 1.77-7.578 1.77-3.319 0-6.029-.996-8.131-3.042-2.102-1.992-3.153-4.536-3.153-7.578 0-3.319 1.051-5.863 3.098-7.689 2.046-1.825 4.812-2.931 8.131-3.374l9.735-1.161zm-12.722 16.262c1.272.996 2.766 1.493 4.536 1.493 2.102 0 4.148-.498 6.139-1.493 3.319-1.604 5.034-4.26 5.034-7.965v-4.868a9.636 9.636 0 01-2.821 1.162 18.765 18.765 0 01-3.43.663l-3.65.443c-2.157.277-3.817.72-4.923 1.383-1.881 1.05-2.766 2.71-2.766 4.978 0 1.825.664 3.208 1.881 4.204zM141.967.885h5.752v15.211L163.151.885h7.689l-13.773 13.33 14.547 22.513h-7.688L152.642 18.53l-4.923 4.701v13.441h-5.808V.885h.056zm54.206.995c2.378 1.217 4.204 2.71 5.421 4.647 1.217 1.825 1.991 3.927 2.378 6.306.332 1.659.553 4.259.553 7.91h-26.052c.111 3.65.94 6.582 2.544 8.739 1.604 2.212 4.038 3.318 7.412 3.318 3.098 0 5.587-1.05 7.467-3.097 1.051-1.217 1.77-2.6 2.213-4.204h5.918c-.166 1.328-.663 2.766-1.548 4.37s-1.881 2.931-2.932 3.982c-1.825 1.77-4.038 2.987-6.748 3.596a21.427 21.427 0 01-4.868.553c-4.425 0-8.186-1.604-11.283-4.868-3.098-3.263-4.647-7.799-4.647-13.607 0-5.752 1.549-10.398 4.647-13.994 3.097-3.595 7.135-5.365 12.168-5.365 2.545-.11 4.979.498 7.357 1.715zm2.157 14.05c-.221-2.6-.829-4.702-1.714-6.25-1.66-2.877-4.37-4.37-8.187-4.37-2.765 0-5.033.996-6.914 2.987-1.88 1.991-2.821 4.536-2.931 7.633h19.746zM209.78.885h5.697v5.089c1.715-2.102 3.485-3.595 5.366-4.536 1.88-.94 3.982-1.383 6.305-1.383 5.089 0 8.518 1.77 10.288 5.31.996 1.936 1.494 4.702 1.494 8.353v22.955h-6.14V14.104c0-2.157-.332-3.927-.996-5.31-1.051-2.213-2.987-3.319-5.808-3.319-1.438 0-2.599.166-3.484.443-1.66.497-3.098 1.493-4.37 2.931-.996 1.162-1.659 2.379-1.936 3.65-.276 1.273-.442 3.043-.442 5.422v18.75h-6.03V.886h.056z" fill="#333"/><path d="M22.934.719c-12.667 0-22.9 10.288-22.9 22.9v9.79a3.234 3.234 0 003.264 3.263A3.234 3.234 0 006.56 33.41v-9.79a3.234 3.234 0 013.263-3.264 3.235 3.235 0 013.264 3.264v9.79a3.234 3.234 0 003.263 3.263 3.234 3.234 0 003.264-3.263v-9.79a3.234 3.234 0 013.263-3.264 3.234 3.234 0 013.264 3.264v9.79a3.234 3.234 0 003.263 3.263 3.234 3.234 0 003.264-3.263v-9.79a3.234 3.234 0 013.263-3.264 3.235 3.235 0 013.263 3.264v9.79a3.234 3.234 0 003.264 3.263 3.234 3.234 0 003.263-3.263v-9.79C45.832 11.008 35.544.72 22.933.72z" fill="#00ADBB"/></svg>