<svg width="191" height="47" fill="none" xmlns="http://www.w3.org/2000/svg"><path d="M21.995 6.063l.783.002.026-.798.76-.001-.951 1.56c.079.146.318.073.459.061l.105-.062.024.675c-.77.258-1.564.024-1.564.024l-.018-.699c.153.092.471.165.557 0l-.928-1.559.727.001M6.528 18.862c.116.251.202.516.294.78.282.613.54 1.232.908 1.807v.07l-1.16.943c.645.822 1.355 1.613 2.068 2.403 1.913-1.404 3.832-2.807 5.855-3.943.97-.466 2.269-.11 3.25-.545-.822.62-1.257 1.545-2.047 2.19.478.587.693 1.28.993 1.943-.902.007-1.889.104-2.699-.172.171.412.203 1.57.252 2.153-.834-.319-1.723-.51-2.423-1.159.038 1.147-.421 2.09-.778 3.071-.576-.544-1.196-1.108-1.563-1.765-.326.864-1.172 1.52-1.723 2.292L6.57 30.685c.3-.749.356-1.588.38-2.447-2.299-.374-4.882-1.447-5.752-3.876-.165-.46-.294-.932-.294-1.459.644 1.276 2.024 2 3.33 2.196C2.198 23.896.629 21.836.5 19.511c.65 1.264 1.962 2.49 3.269 3.018l.024-.025C1.683 20.48.378 18.011.61 15.128c.43 1.705 1.479 3.324 3.055 4.383l.017-.017C1.935 17.213.69 14.33 1.659 11.314c.086 3.158 2.201 5.849 4.869 7.548zm37.559.674l.018.02c1.6-1.043 2.649-2.694 3.079-4.404.245 2.956-1.104 5.38-3.207 7.396h.067c1.3-.522 2.588-1.724 3.245-2.993-.1 1.593-.799 2.931-1.897 4.11a9.43 9.43 0 01-1.857 1.453c.601-.056 1.178-.277 1.71-.546.657-.337 1.35-.957 1.663-1.644-.043 1.956-1.54 3.765-3.305 4.507-.878.375-1.791.656-2.766.803-.013.809.068 1.686.362 2.423-.718-1.142-1.643-2.318-2.612-3.416-.147-.178-.222-.38-.294-.589-.4.645-.988 1.208-1.583 1.772-.331-1.005-.835-1.937-.78-3.096-.692.668-1.592.835-2.427 1.16.025-.688.013-1.473.258-2.11-.982.223-2.006.14-2.723.128.27-.675.533-1.35.993-1.944-.772-.644-1.25-1.54-2.024-2.17.865.38 2.116.122 3.054.465 1.019.502 1.969 1.165 2.932 1.791l2.464 1.747.632.485.06-.019 2.068-2.36-1.177-.97c.472-.827.839-1.697 1.159-2.594 2.661-1.716 4.85-4.408 4.93-7.584.963 3.01-.27 5.907-2.042 8.18z" fill="#155195"/><path d="M6.301 18.078a5.414 5.414 0 01-1.814-1.706c.11-1.728.582-3.306 1.243-4.807-.349 2.239.03 4.489.571 6.513zm36.982-1.662c-.473.663-1.11 1.325-1.815 1.705.509-2.036.939-4.268.571-6.512.669 1.495 1.116 3.083 1.244 4.807zm-35.363-.57c.203-.577.41-1.148.803-1.645-.018.609-.097 1.387.233 1.92 1.012-.232 2.19-.385 3.262-.17-.559.183-1.188.563-1.428 1.158-.11-.1-.123-.276-.233-.4-.27.05-.546.068-.804.147l.822.78c-.08.491-.129 1.122.043 1.581a3.337 3.337 0 011.748-2.845c.484-.244 1.202-.421 1.71-.104.307.239.338.638.252.988.007-.185-.172-.332-.319-.417-.81-.253-1.46.343-1.956.945-.093.171-.227.317-.276.508.387.251.815.136 1.263.104.362-.081.693-.234.994-.465-.583.876-1.578 1.22-2.447 1.624l.337.486c-.184.146-.398.323-.631.398l-.546-.718c-.602.442-1.22.816-1.815 1.27l.484.692c-.153.135-.331.301-.527.38-1.576-2.067-2.724-4.924-1.558-7.524l.313-.527c.013.644.036 1.282.276 1.834zm31.317 5.751l-.357.466c-.184-.024-.355-.227-.527-.337.13-.245.332-.46.484-.693-.582-.46-1.22-.858-1.832-1.288l-.529.693h-.103c-.184-.115-.368-.237-.552-.356.091-.17.227-.325.337-.483-.337-.24-.773-.326-1.134-.553-.491-.252-1.025-.576-1.331-1.09.57.447 1.465.643 2.239.398.073-.141-.099-.282-.148-.424-.466-.667-1.14-1.239-1.982-1.116-.163.025-.3.208-.378.336l-.025.105c-.068-.189-.068-.582.086-.797.288-.36.747-.367 1.177-.318 1.019.196 2.006 1.115 2.3 2.11.116.312.11.674.171 1.011.192-.512.108-1.295.061-1.626.264-.25.558-.495.798-.753-.252-.086-.534-.105-.797-.154-.062.134-.147.26-.19.405a2.538 2.538 0 00-1.455-1.16c1.013-.226 2.245-.047 3.264.167.324-.527.269-1.263.215-1.895.41.465.618 1.049.82 1.625.21-.564.294-1.171.251-1.834 1.583 2.3.584 5.52-.863 7.561z" fill="#155195"/><path d="M16.689 14.583c.692.747 1.233 1.802.76 2.801-.086.13-.172.252-.258.38.945.056 1.803-.097 2.51-.613a4.24 4.24 0 001.562.32c.601 1.042 1.117 2.12 1.473 3.26.121-.832-.012-1.722-.21-2.506-.08-.265-.19-.547-.232-.799a6.256 6.256 0 002.084-.612c.503-.288 1.055-.576 1.417-1.072-1.251.715-2.625 1.114-4.133 1.2-.914-.036-1.9-.067-2.404-.906-.208-.41.105-.846.215-1.116a4.158 4.158 0 01-2.784-.337zm3.96-2.422a.56.56 0 00-.422.042c-.154.08-.154.252-.147.417a.62.62 0 00.423.405c.35.066.797.073 1.055-.172-.307-.233-.571-.552-.908-.692zm6.115-.111c.294.312.417.76.82.95.154.037.344.037.462-.086a.594.594 0 00.067-.46c-.264-.454-.866-.552-1.35-.404zm-4.87-.184c-.239-.049-.52-.031-.673.147.331.232.6.625.944.84.22.117.533.066.717-.085-.312-.288-.619-.694-.987-.902zm3.454-.025c.305.331.484.736.82 1.037.196.11.497.152.7.018-.27-.326-.466-.688-.735-1.012-.21-.14-.566-.184-.785-.043zm-2.147-.122c-.246-.08-.484.024-.656.147l.778.754c.24.166.62.245.89.085-.362-.318-.608-.777-1.012-.986zm1.472.018c-.234-.098-.521-.098-.711.043.416.325.539.92 1.073 1.055.165.037.367 0 .484-.111-.35-.301-.479-.73-.846-.987zm.889-2.084l-.674.398c.008.17.238.261.29.41.018.058-.003.32-.03.35-.096.101-.388 0-.512.06-.165.031-.239.204-.233.357.227.055.515.049.693.257.197-.08.38-.196.632-.146.054-.234.067-.484.172-.7.06-.14.213-.165.337-.207a5.368 5.368 0 01-.675-.78zm14.201-3.65c-.392 1.068-1.544 1.687-2.63 1.712.706.883.84 2.01 1.833 2.777.534.435 1.252.675 1.957.442.901-.288 1.527-1.252 1.686-2.128a2.807 2.807 0 01-.95.44c-.626.112-1.288.044-1.748-.373.043-.092.08-.177.147-.257.41-.792.276-1.957-.295-2.613zM7.982 5.96l-.104.128c-.541.748-.529 2-.02 2.759-.134.123-.294.184-.44.277-.755.312-1.65.091-2.258-.381.147.805.613 1.6 1.367 2.024.577.325 1.374.307 1.92-.061 1.227-.692 1.405-2.042 2.171-3.036-1.116 0-2.214-.667-2.636-1.71zm19.432-.485a.717.717 0 01-.337.276c-.548.073-1.19-.074-1.687.129a.825.825 0 00-.38.46c-.03.191-.036.416.086.57.405.534 1.171.3 1.79.355.073.037.129.112.129.191-.018.085-.074.135-.147.172h-2.551c-.165.36-.497.656-.484 1.091h-.736l-.76.865-.736-.865-.742-.018-.02-.295-.673-1.22c.147-.24.313-.761.313-.761l-.209-.189-.822.63.861 2.271.678.177v-.196l.485-.003-.062 1.61c-.049.256-.337.11-.484.208-.307.146-.135.57-.147.803.35-.32.902-.398 1.349-.233l.546-1.558c1.085.086 2.232-.178 3.054-.968.269.533.668 1.017 1.14 1.47l-.043.259c-.006.275-.264.043-.398.148-.24.079-.19.354-.258.544l.405.277c.27-.117.612-.111.902-.111.073-.38.183-.742.275-1.116l-.423-.544a1.16 1.16 0 00.3-.443c.11-.477.006-.963-.318-1.306.337-.155.472-.497.466-.846-.128-.91-1.17-.488-1.85-.585-.344 0-.356-.459-.01-.459.687-.057 1.454.073 2.068-.177.227-.135.41-.379.424-.613h-.994zm-6.469-1.263l.061.613c-.179.27-.412.54-.46.839l.485.633c.018.3-.179.564-.319.82l.613 1.1h.466l.563.692.528-.675.509-.037.607-1.08c-.135-.25-.312-.477-.337-.777l.527-.693a3.031 3.031 0 00-.484-.805c.018-.207.061-.452.043-.63l-.546.294a2.624 2.624 0 00-1.711 0l-.545-.294zm2.863-2.128c-.576.331-.54.958-.521 1.557h1.134c-.012-.306.037-.643-.043-.926-.098-.244-.287-.55-.57-.63zm-1.22-1.33h.847L23.434 0h.822v.764l.839-.002V0h.823v2.845l-.528.485v1.998h1.52c.142-.153.307-.33.547-.294h1.539c-.08.492-.203.987-.656 1.307-.147.098-.32.146-.484.208.35.27.484.711.36 1.14-.084.165-.146.339-.318.467.307.496.368 1.3 0 1.79.766.472-.017 1.147.043 1.748.288.177.582.398.614.76.055.338-.056.675-.338.884a.908.908 0 01-.404.128c.03.259.324.503.552.675.576.404 1.508.324 2.103.018.331-.19.704-.491.804-.864.06-.215-.007-.43-.105-.607-.276-.375-.742-.412-1.16-.32-.275.1-.551.277-.718.546-.208-1.018-.183-2.318.78-2.924.447-.24 1.067-.197 1.497.042.127.073.25.171.36.294-.09-1.47.13-2.973 1.454-3.777.834-.478 2.091-.392 2.864.172l.552.466c1.03.012 1.98-.473 2.501-1.374.16-.257.216-.564.276-.864 1.055.84 1.546 2.17 1.16 3.458-.074.105-.05.22.085.252.975.214 1.748-.441 2.465-1.055.098 1.576-.478 3.085-1.919 3.795-.834.399-1.956.21-2.656-.356-.71-.532-1.14-1.257-1.514-1.961-.331-.393-.877-.275-1.373-.234-.75.137-1.496.627-1.853 1.35-.091.215-.16.435-.19.674.117-.013.254-.117.382-.165.66-.251 1.41-.05 1.918.398a1.62 1.62 0 01.356 1.705c-.214.614-.797 1.233-1.41 1.454-.083-.658-.454-.872-.779-.901-.907-.198-1.305.68-1.944 1.195-.62.593-1.753 1.072-1.618 2.11.043.453.25.876.674 1.14.165.091.342.159.526.207-1.176.418-2.887.552-3.881-.355-.235.383.101 1.034.192 1.212.263.524.647.997.698 1.608a2.188 2.188 0 00-2.024-.588s-.466.067-2.611 1.328c-.532.31-.999.55-.999.55s-.188-.107-.272-.149c-.638-.435-1.324-.753-2-1.096-.293-.21-.385-.566-.336-.908.086-.313.392-.595.693-.717v-.124l-.442-.802c-.35-.05-.68-.148-1.029-.21-1.148.558-2.79.736-4.03.252.405-.11.86-.397 1.055-.82.208-.45.178-1.112-.147-1.497-.643-.724-1.465-1.148-2.085-1.937a1.39 1.39 0 00-1.367-.382c-.425.118-.586.593-.552.866-.815-.289-1.502-1.155-1.539-2.025.025-.565.3-1.097.802-1.392.559-.301 1.382-.349 1.92.043-.006-.613-.392-1.133-.865-1.557-.655-.473-1.618-.711-2.403-.362-.48.797-.969 1.693-1.834 2.214-.71.453-1.82.588-2.569.129-1.35-.772-1.846-2.202-1.771-3.71.491.392.993.82 1.572.997.272.083.797.178 1.04-.045-.136-.252-.205-.853-.202-1.065a3.254 3.254 0 011.298-2.567c.044.9.829 1.79 1.662 2.066.357.122.749.21 1.141.172.687-.711 1.6-1.097 2.637-.889.803.16 1.607.858 1.87 1.643.282.73.344 1.607.276 2.428.4-.435.963-.6 1.539-.484.663.129 1.062.847 1.159 1.454.08.527.037 1.103-.043 1.618-.27-.373-.668-.631-1.134-.607-.3.05-.606.116-.785.417-.154.288-.073.693.086.95.674.835 1.81.975 2.802.76.252-.041.454-.188.699-.25-.147.281-.196.71.037.967.926.928 2.502.83 3.692.548.944-.228 1.827-.609 2.673-1.075-.625.872.154 1.737.362 2.553.288-.443.614-.903.779-1.417.098.84.686 1.71 1.539 1.943.392.104.895.153 1.305.038-.318-.442-.502-.994-.354-1.576.05-.681.852-1.075.883-1.73-.724.466-1.797.614-2.638.295-.526-.226-.999-.749-1.22-1.264-1.538 1.203-3.354 1.797-5.414 1.662.177-.46.49-.864.674-1.324l-.76-.025-.631 1.184c-.247-.093-.485-.314-.552-.57-.056-.338.073-.645.3-.883-.13-.061-.282-.062-.423-.086-.355-.093-.724-.4-.78-.78-.03-.495.203-.909.678-.907.011-.21-.077-.602.016-.778.055-.29.367-.4.613-.467.037.012.062-.018.087-.043v-.692l-1.022-.246-1.088-2.79s.778-.535 1.134-.865c-.233-.208.08-.398.128-.59l.399-.612c-.054-.405-.012-.846-.147-1.221.436.174.822.522 1.307.504l.631-.079V3.33l-.521-.485V0h.797m-8.769 20.585l-2.587 1.687-2.466 1.773h-.043l-1.33-1.542c.232-.176.447-.39.699-.526l.692.823c.46-.313.902-.676 1.35-1.012-.123-.252-.374-.455-.485-.718l.969-.65.528.675c.49-.312.993-.596 1.477-.926l-.233-.38c.294-.135.601-.345.927-.442m22.044.441l-.232.4 1.477.924.545-.674.95.656v.061l-.484.632c.424.363.896.7 1.35 1.036.27-.244.497-.54.711-.822.246.123.454.34.674.503v.062l-1.324 1.496-3.287-2.293-1.816-1.159.51-1.245c.32.11.613.283.926.423zm-16.416 5.544l1.092-1.772 1.052 1.775m7.674-.003l-2.128.018c.306-.607.674-1.184 1.03-1.772.398.55.736 1.17 1.098 1.754zm-8.174 3.685c-.233.442-.314.938-.362 1.453.184.092.41.019.589-.02l.11-.066.019.613c-.19-.116-.437-.11-.675-.104.012.263.062.564.043.865h-.59a3.597 3.597 0 01.062-.847c-.226-.03-.49-.037-.674.086l-.018-.613c.208.093.478.184.71.086-.024-.52-.17-.993-.355-1.453.215-.282.461-.559.57-.883.105.324.35.601.57.883z" fill="#155195"/><path d="M25.433 34.646v5.458c1.25-.803 2.373-1.95 3.2-3.183.467-.717.89-1.478 1.1-2.275h-4.3zm-3.158 0h-4.322c.704 2.116 2.341 4.159 4.322 5.433v-5.433zm6.93-11.613H18.497v.398h1.138l-1.27 2.062c.11.282.29.594.554.809.43.355 1.043.459 1.601.311.516-.171.975-.607 1.116-1.135l-1.194-2.047h2.733v.741l.595.007-.717.939.797.864.803-.864-.737-.935.59-.01.018-.742 2.739.003s-.813 1.377-1.199 2.044c.061.24.208.45.362.652.447.52 1.134.649 1.79.483.478-.146 1.006-.625 1.092-1.135l-1.237-2.044 1.132-.003v-.398zm-.356-1.895l1.116.018c.398.496.767 1.017 1.263 1.453-.564.827-.804 1.784-1.454 2.575l1.031.037c.024.933.14 1.822.638 2.552l-6.028.023v4.385h5.52c-.278 4.023-3.32 7.96-7.102 9.419-3.752-1.483-6.77-5.42-7.04-9.419h5.5v-4.385l-5.985-.023c.479-.737.552-1.65.59-2.57h1.01v-.062c-.625-.754-.858-1.667-1.366-2.465-.037-.024-.062-.08-.026-.11.51-.429.83-.95 1.227-1.41l3.203-.018c.765.343 1.52.716 2.212 1.238a46.234 46.234 0 003.244-1.791c.516-.225 1.313-.393 1.815-.017.227.147.453.348.632.57zm10.706 18.438a9.671 9.671 0 000 1.981h-.442c.147-.49.074-1.098.063-1.625-.172.416-.283.864-.382 1.306h-.318c-.037-.41-.16-.79-.27-1.178l-.024 1.367c.024.05.043.099.066.148-.152.043-.324.043-.484.068l.104-.216c.02-.538.068-1.145-.043-1.66l-.06-.062c.209-.061.447-.061.674-.086.043.325.153.632.228.945.09-.325.245-.632.276-.988m-28.515.442l.01 1.556.076.148c-.172.024-.4-.036-.589-.062l.123-.233c.006-.575.104-1.244-.08-1.765l.546.105m26.803.251c-.091.632.257 1.484-.375 1.851-.196.067-.477.16-.655-.018l-.129-.19-.037-1.349-.086-.147c.148-.098.356-.147.546-.19l-.104.251.018 1.312c.205.259.435-.001.486-.118.005-.01.023-1.34.023-1.34l-.104-.192c.153-.086.35-.079.527-.12m-28.772.042l-.018 1.428c.165.018.32 0 .424-.147.177-.282.196-.742.061-1.055-.092-.183-.276-.226-.467-.226zm.891.147c.159.388.164.894-.088 1.245-.312.464-.87.331-1.366.356.3-.49.128-1.209.147-1.791 0-.099-.086-.153-.13-.233.534.011 1.155-.099 1.437.423zm2.482.208l.025.485c-.136-.135-.306-.344-.527-.251-.331.208-.252.642-.234.986.043.173.148.35.32.423.153.062.305-.006.416-.104l.025.467c-.435 0-.853-.11-1.08-.528-.195-.374-.177-.963.068-1.306a.64.64 0 01.718-.258c.08.05.172.08.27.086zm23.86.399v.086c-.141-.098-.313-.074-.465-.019l-.043.061c.036.528-.086 1.122.104 1.582l-.522.25c.154-.508.056-1.12.08-1.684-.178.006-.35.251-.46.398-.021-.168 0-.345 0-.471.397-.169.795-.34 1.202-.54.098.05.067.228.104.337zm-22.382.846a.91.91 0 00-.485-.441c-.011.55-.085 1.19.062 1.704l-.503-.233c.154-.504.055-1.11.08-1.661-.105-.075-.276-.129-.399-.043l-.043.043.043-.442 1.221.564m20.885.484c-.067-.116-.233-.085-.335-.06-.254.121-.345.38-.358.63-.012.282.013.588.277.718.208.043.349-.13.46-.277v.45c-.203.084-.405.23-.65.146-.295-.123-.399-.43-.467-.7-.043-.527.172-1.017.632-1.262.135-.074.325-.019.441-.129m-20.144.405l-.086.165.018 1.349c.05.128.185.215.301.25.099 0 .21-.06.228-.164-.025-.478.073-1.005-.08-1.435l.46.233c-.135.285-.07.658-.074 1-.001.986-.754.668-.938.515-.16-.16-.294-.333-.27-.564-.037-.552.086-1.166-.11-1.644.177.105.374.172.551.295zm1.877.797c.018.355.11.68.19 1.012.128-.277.258-.545.294-.866.178.03.418.026.608.085l-.08.296.018 1.508.043.195c-.135.05-.324-.035-.467-.08-.036-.036.068-.102.068-.17.03-.454.03-.95 0-1.41-.147.392-.342.766-.448 1.183l-.25-.085c-.031-.479-.203-.933-.314-1.392-.023.513-.048 1.078.02 1.582-.115-.054-.229-.086-.324-.127a1.254 1.254 0 00-.068-.03s.007-.047.012-.101c.11-.527.06-1.147.042-1.705l-.062-.165m17.298.987l-.19-.675-.121.822.312-.148zm.087-1.116c.073.545.258 1.043.442 1.538l.104.105c-.166.08-.319.185-.503.234.05-.155.006-.325-.043-.467a1.21 1.21 0 00-.503.215.99.99 0 00.019.502c-.179.056-.338.148-.528.172.276-.577.362-1.232.466-1.876l-.024-.19c.19-.08.374-.178.57-.233zm-1.791.804l.018.693c.093-.025.197-.025.259-.13a.606.606 0 00.061-.46c-.025-.165-.233-.184-.338-.103zm.736-.044c.069.214.073.516-.08.694-.165.226-.441.262-.674.36-.006.246-.013.486.08.695-.129.104-.374.03-.546.085.227-.527.104-1.22.104-1.815l-.086-.166c.417.018.944-.344 1.202.147z" fill="#155195"/><path d="M19.7 42.845v2.882c.257.179.557.257.846.36 1.655.4 3.526.486 5.285.253.767-.13 1.553-.203 2.196-.631l-.025-2.847c-.552.221-1.152.344-1.747.468-2.16.275-4.617.275-6.555-.485zm22.656-3.373c-.415.915-.268 2.178.315 2.968.509.098 1.055.165 1.605.103v-2.924c-.68.044-1.293-.067-1.92-.147zm-36.944-.024c-.614.08-1.208.196-1.876.147v2.93c.538.062 1.079-.006 1.582-.103a3.298 3.298 0 00.44-2.655l-.146-.319zm29.992.466l-2.89 1.392c-.85.36-1.777.6-2.782.527v2.95c.846.084 1.618-.118 2.342-.381l2.845-1.366a11.099 11.099 0 013.582-.952c.435-.086.987.11 1.349-.172.337-.184.478-.527.546-.864.043-.606.116-1.33-.087-1.894-1.766-.19-3.415.158-4.905.76zm-27.944-.76c-.215.57-.142 1.33-.067 1.937.061.393.38.828.778.932 1.717.026 3.305.338 4.747 1.03 1.63.711 3.115 1.92 5.076 1.705v-2.925a5.902 5.902 0 01-2.68-.485c-2.415-1.22-4.824-2.574-7.854-2.194zM16.224 25.1c.108 1.047-.173 1.987-.797 2.76.115.177.268.335.416.508.288-.019.613.056.822-.154.234-.122.379-.026.524.158.153.044.256.04.468-.047.006.134-.085.246-.19.312a.52.52 0 01-.244.052c-.096.167-.264.353-.517.242-.108-.124-.288-.079-.416-.06l-.024.017c.306.247.576.571.95.657a.629.629 0 01.484-.018c.239.055.13.369.337.441l.27-.022c-.147.274-.478.194-.693.36-.416.073-.582-.331-.926-.423l-.44-.338c.03.406.231.797.483 1.14.13.093.307.062.418.19.171.086 0 .406.275.356h.296c-.148.302-.516.165-.718.381a.604.604 0 01-.546-.129c-.111-.148-.13-.338-.148-.528-.417-.478-.632-1.042-.802-1.619-.066.075-.128.166-.085.23.062.092.168.32-.002.485-.057.084 0 .26.05.358-.159-.059-.228-.129-.358-.253-.127-.035-.417-.226-.133-.629.043-.294.178-.54.276-.804-.031-.158-.171-.276-.294-.398-1.116.97-2.43 1.472-3.71 2.042-.32.177-.675.466-.736.84a.57.57 0 00.276.448c1.061.343 2.036-.718 3.054-.043.79.49.447 1.656 1.434 1.919-.472.147-1.011.485-1.183.988-.135.588-.146 1.336.252 1.815.797.901 2.526.03 2.888 1.471.019.27.005.528-.233.7a.874.874 0 01-.485.865l-.227.103c.055-.183.166-.398.062-.595-.067-.166-.209-.283-.362-.373-.037.233-.074.473-.208.675-.172.237-.412.312-.675.336.123-.196.123-.466.086-.699-.043-.117-.13-.252-.252-.295-.166.393-.534.768-.969.804a.613.613 0 00.123-.569c-.038-.418-.545-.277-.694-.633-.293-.552-.852-.908-1.476-.864.324-.546.851-1.06.611-1.791-.079-.369-.44-.724-.802-.804l-.607-.018c-.117-.55-.491-1.177-1.08-1.35-.067.02-.128-.059-.19 0 .608.793.651 2.086.216 2.968-.4 1.116-1.644 1.344-2.3 2.275 2.967-.17 5.347 1.074 7.733 2.3.509.202 1.029.374 1.606.424.056-.208-.056-.509.209-.613.987-.313 2.011.037 2.76.674.398.257.202.76.25 1.159.399.202.871.214 1.306.318 1.785.252 3.716.19 5.421-.19.11-.03.226-.042.312-.128.044-.344-.104-.767.13-1.031.785-.723 1.864-1.108 2.93-.777.221.122.154.373.166.588 1.625-.13 2.925-1.165 4.385-1.748 1.527-.65 3.151-1.043 4.992-.933l.024-.018c-.706-.968-2.134-1.298-2.422-2.551-.276-.876-.264-1.98.313-2.717-.363.02-.73.24-.945.589-.178.234-.233.51-.32.78-.477-.05-.98.024-1.261.466-.259.429-.3 1.025 0 1.453l.458.693c-.68-.072-1.226.373-1.557.932-.196.3-.747.233-.65.711.012.141.03.283.148.381-.258.011-.54-.147-.742-.381-.141-.104-.117-.362-.295-.381-.276.191-.22.571-.165.85l.061.102c-.172.043-.369-.061-.528-.147-.245-.21-.312-.498-.337-.805-.129-.03-.258.13-.337.235a.75.75 0 00-.062.527l.087.17c-.319-.09-.656-.354-.718-.697 0-.093-.036-.173-.024-.27-.227-.184-.264-.467-.209-.742.502-1.644 3.036-.227 3.201-2.19.117-.68-.025-1.33-.607-1.729-.197-.136-.417-.208-.631-.294.962-.325.643-1.577 1.576-2.024 1.066-.503 1.962.54 2.992.104a.463.463 0 00.19-.545c-.577-.981-1.736-1.006-2.588-1.54-.631-.367-1.294-.674-1.858-1.2-.129.079-.22.213-.294.334.049.327.233.59.294.91.189.237.073.428-.106.51-.105.105-.255.266-.397.31.018-.097.086-.177.062-.293-.141-.1-.141-.277-.105-.424.105-.091.025-.202.02-.313l-.045-.043a4.305 4.305 0 01-.82 1.687c.017.184 0 .362-.148.485-.135.141-.362.141-.546.104-.196-.208-.552-.093-.699-.38.16-.025.35.055.466-.062a.404.404 0 01.252-.379c.067-.069.177-.019.257-.069.263-.349.435-.736.521-1.159h-.061c-.3.307-.674.413-.988.686a.44.44 0 01-.553-.068c-.068.02-.386-.03-.483-.235.117.017.294.066.38-.046-.012-.146.086-.268.191-.355a.419.419 0 01.46.017c.119.03.235.005.343-.122a5.02 5.02 0 00.675-.552c-.326-.225-.553.272-.847-.017l-.129-.166a.525.525 0 01-.417-.258c-.012-.03-.03-.06-.024-.103.147.013.283.06.441.043.092-.13.222-.172.362-.192a.677.677 0 01.442.173c.245-.067.527.147.699-.11l.312-.38c-.613-.773-.92-1.742-.778-2.76.521.006 1.036.006 1.515-.08-.086.724-.08 1.595-.166 2.318 0 0 1.206-.336 2.63-.95.123 1.08.632 1.994 1.037 2.95.564-.56 1.227-.982 1.729-1.6 1.086 1.25 2.293 2.481 2.778 4.003.122.951.14 2.078 1.159 2.526a.904.904 0 00.57.068c.129-.05.214-.179.252-.3.091-.804-.479-1.387-.712-2.086-.374-.636-.497-1.698.017-2.317.621-.81 1.854-.13 2.486-.908.146-.146.226-.33.317-.503.093.393-.066.73-.104 1.097.203-.061.424-.195.631-.294.198-.133.4-.337.528-.527-.392.957-.276 2.44-1.6 2.692a3.217 3.217 0 01-1.117-.062c-.152 0-.3.062-.38.19v.252c.35 1.098 1.466 2.19.736 3.416-.343.416-.876.52-1.391.398-.43-.115-.816-.391-1.134-.736l-.068.21c-.122 1.422.025 3.048 1.35 3.778.115.017.213.072.336.078l-.19.215.044.043c.649.129 1.36.103 2.023.018l.019 4.03c-1.013.151-2.062 0-3.012-.191-.717.404-.975 1.239-1.728 1.557-.123.11-.118.295-.086.44a.69.69 0 00.189.295 1.052 1.052 0 01-.822-.59c-.042-.102-.08-.206-.122-.317-.228.098-.332.356-.337.595l.018.209c-.374-.136-.6-.559-.631-.95-.222.036-.331.31-.4.509l-.023.19c-.332-.423-.442-1.276-.147-1.816l.17-.233c-.503 0-.974.183-1.453.302-2.44.635-4.409 2.794-7.21 2.206l-.019-1.073c-.215-.013-.435.085-.632.19v1.6c-.883.787-2.121.798-3.268.993-2.067.105-4.249.117-5.966-.82l-.147-.148v-1.606c-.154-.136-.387-.16-.59-.227h-.042l-.02 1.073-.042.043c-1.128.195-2.226-.043-3.182-.442l-2.95-1.435c-.778-.318-1.607-.577-2.446-.674.416.52.386 1.385.104 1.962l-.08.105c-.056-.277-.117-.57-.38-.743-.098.214-.135.49-.294.7a.779.779 0 01-.362.276c-.006-.27-.018-.675-.338-.803-.092.397-.429.803-.84.907h-.104c.178-.173.27-.436.166-.675-.761-.325-1.079-1.22-1.791-1.625-.944.19-1.98.35-2.992.19v-4.004a5.73 5.73 0 002.066-.061l.019-.025-.208-.21c.735-.058 1.287-.844 1.496-1.476.269-.76.287-1.736.146-2.57-.202.136-.367.332-.57.467-.473.325-1.195.429-1.705.104-.368-.281-.526-.68-.508-1.14.085-.957.686-1.706.993-2.57a.315.315 0 00-.172-.356c-.749.03-1.63.197-2.171-.466-.533-.62-.41-1.514-.754-2.214.276.441.723.645 1.135.846-.012-.355-.172-.746-.086-1.122.14.381.502.792.907.865.693.147 1.533-.018 1.981.675.852 1.514-.643 2.68-.797 4.09a.555.555 0 00.122.38.476.476 0 00.485.129c1.62-.435 1.036-2.264 1.643-3.355.638-1.166 1.552-2.212 2.466-3.267.533.575 1.158 1.09 1.754 1.605.385-.955.931-1.844 1.01-2.93.835.38 1.742.6 2.589.95-.013-.76-.03-1.576-.147-2.318.478.11 1.03.038 1.54.063z" fill="#155195"/><path d="M20.987 43.746c.03.33.092.65.19.95.093-.275.16-.563.19-.865.197.031.46.026.675.086l-.086.234c.018.575-.055 1.19.062 1.723l-.461-.061c.11-.448.055-1.037.044-1.54-.123.38-.283.748-.276 1.184a.848.848 0 01-.32-.025c-.025-.454-.177-.853-.27-1.281-.049.466-.097 1.037.044 1.47l-.448-.102c.19-.467.092-1.08.086-1.602-.025-.103-.025-.226-.086-.318m7.021.024c-.147.522-.073 1.166-.06 1.73.03.043.012.116.036.165a1.112 1.112 0 01-.442.13c.049-.498.092-1.013.043-1.523-.104.436-.306.835-.313 1.306-.103.02-.19.063-.3.068-.03-.442-.159-.847-.295-1.245-.005.505-.079 1.091.068 1.56-.153.06-.324.054-.485.083.191-.514.068-1.163.104-1.747l-.104-.233c.215-.03.448-.022.65-.086.061.099.056.252.087.381l.146.528c.068-.326.204-.62.21-.97.227-.036.428-.122.655-.147zm-3.857.737c-.166-.13-.41-.196-.614-.106v.528c.142.02.351.068.468-.042l.018.397c-.14-.068-.282-.134-.46-.104l-.026.675a.912.912 0 00.572 0l.128-.06v.355c-.41.017-.797-.031-1.183-.087a1 1 0 00.128-.607c-.036-.453.086-.968-.105-1.349l1.075.061m1.79-.061c-.202.497-.055 1.136-.129 1.688a.628.628 0 01-.313.336c-.703.19-.883-.295-.883-.295-.067-.551.056-1.177-.11-1.685h.527c-.147.465-.073 1.048-.06 1.556.042.111.159.135.251.167a.342.342 0 00.318-.19c.025-.467.05-.994-.025-1.453l-.06-.08c.13-.05.337 0 .484-.043z" fill="#155195"/><path d="M60.47 11.32h3.634v10.422h4.915v2.781H60.47m14.742-2.225c1.669 0 1.854-1.669 1.854-3.357 0-1.705-.185-3.374-1.854-3.374-1.558 0-1.854 1.669-1.854 3.374 0 1.688.296 3.357 1.854 3.357zm0-9.216c3.69 0 5.415 2.614 5.415 5.859 0 3.227-1.724 5.842-5.415 5.842-3.69 0-5.415-2.615-5.415-5.842 0-3.245 1.724-5.86 5.415-5.86zm13.666 4.561c0-.946-.223-1.706-1.075-1.706-.668 0-1.373.667-1.874 1.132v7.454h-3.486V13.34h3.486v1.502c1.243-1.038 2.152-1.762 3.673-1.762 2.762 0 2.762 2.226 2.762 3.543v7.899h-3.486m12.369-7.935c-.482-.52-.91-.908-1.614-.908-1.632 0-1.706 2.002-1.706 3.393 0 1.02.11 3.115 1.669 3.115.76 0 1.187-.426 1.651-.854v-4.746zm3.485 7.936h-3.485v-1.186c-1.224 1.242-2.208 1.446-3.08 1.446-3.188 0-3.8-3.19-3.8-6.009 0-2.503.612-5.693 3.893-5.693 1.373 0 2.096.631 2.987 1.391v-4.358h3.485m7.232 12.184c1.669 0 1.855-1.669 1.855-3.357 0-1.705-.186-3.374-1.855-3.374-1.558 0-1.854 1.669-1.854 3.374 0 1.688.296 3.357 1.854 3.357zm0-9.216c3.691 0 5.415 2.614 5.415 5.859 0 3.227-1.724 5.842-5.415 5.842-3.69 0-5.414-2.615-5.414-5.842 0-3.245 1.724-5.86 5.414-5.86zm13.667 4.561c0-.946-.223-1.706-1.077-1.706-.667 0-1.371.667-1.872 1.132v7.454h-3.486V13.34h3.486v1.502c1.243-1.038 2.15-1.762 3.672-1.762 2.763 0 2.763 2.226 2.763 3.543v7.899h-3.486M61.527 39.933c.241.927.983 2.04 2.745 2.04 1.668 0 2.558-1.187 2.558-2.3 0-1.427-.908-1.873-1.39-2.096l-3.189-1.483c-1.243-.574-1.966-1.52-1.966-2.892 0-2.578 2.244-3.616 4.135-3.616 1.873 0 3.412.649 4.043 2.41l-1.669.557c-.315-1.243-1.428-1.596-2.374-1.596-1.632 0-2.318.929-2.318 2.134 0 1.297.89 1.705 1.743 2.076l2.374 1.039c.816.352 2.43 1.15 2.43 3.43 0 1.243-.761 3.71-4.526 3.71-2.892 0-3.968-1.818-4.247-2.801m11.516-10.273l1.633-.687v3.393h2.577v1.225h-2.577v6.045c0 .909.093 1.743 1.298 1.743.519 0 .796-.092 1.371-.315v1.298c-.611.24-1.26.315-1.538.315-2.356 0-2.764-1.613-2.764-2.837v-6.249h-1.65v-1.225h1.65m6.861 4.582c0 2.15.594 4.431 2.912 4.431s2.911-2.281 2.911-4.432c0-2.114-.593-4.376-2.911-4.376s-2.912 2.262-2.912 4.376zm-1.706.017c0-2.817 1.26-5.692 4.618-5.692 3.894 0 4.616 3.486 4.616 5.692 0 2.837-1.26 5.713-4.616 5.713-3.894 0-4.618-3.487-4.618-5.713zm17.393-2.373c-.13-.446-.573-2.02-2.132-2.02-2.318 0-2.911 2.26-2.911 4.375 0 2.207.593 4.433 2.633 4.433 1.224 0 2.058-.724 2.504-2.004l1.428.464c-.669 1.54-1.521 2.838-3.932 2.838-3.616 0-4.34-3.265-4.34-5.713 0-2.206.724-5.693 4.618-5.693 1.67 0 2.837.78 3.598 2.874m3.449-6.1v8.327l4.228-4.878h2.077l-4.543 5.063 4.858 5.897h-2.114l-4.469-5.638h-.037v5.638h-1.633V28.658m14.854 1.205h7.936v1.373h-6.23v4.301h5.914v1.373h-5.914v4.784h6.415v1.373h-8.121m9.457-10.96h1.909l1.929 3.245c.186.298.389.687.538 1.002h.037c.148-.315.353-.704.538-1.002l2.021-3.245h1.78l-3.3 5.119 3.579 5.841h-1.947l-2.392-4.099c-.131-.222-.26-.5-.316-.667h-.037c-.056.13-.167.39-.352.667l-2.578 4.1h-1.855l3.653-5.806m13.371-2.058c-.13-.446-.576-2.02-2.133-2.02-2.318 0-2.911 2.26-2.911 4.375 0 2.207.594 4.433 2.633 4.433 1.224 0 2.058-.724 2.504-2.004l1.427.464c-.668 1.54-1.52 2.838-3.931 2.838-3.616 0-4.339-3.265-4.339-5.713 0-2.206.723-5.693 4.617-5.693 1.669 0 2.837.78 3.597 2.874m1.669-6.1h1.632v5.23c.89-.797 2.04-2.003 3.709-2.003 1.688 0 2.726 1.02 2.706 3.096v8.086h-1.631v-7.492c0-1.113-.259-2.206-1.612-2.206-1.522 0-2.505 1.112-3.172 1.89v7.808h-1.632m15.335-5.527c-2.336 0-3.708.742-3.708 2.393 0 1 .481 1.947 1.836 1.947.667 0 1.557-.167 3.06-1.873V37.54h-1.188zm-4.821-2.911c.501-1.316 1.316-2.744 3.969-2.744 3.245 0 3.671 2.207 3.671 4.135v5.767c0 .241 0 .668.092 1.28h-1.723v-1.855h-.038c-1.057 1.39-2.132 1.966-3.43 1.966-2.263 0-3.061-1.669-3.061-3.097 0-2.503 1.929-3.764 4.951-3.764h1.578v-.704c0-.742 0-2.504-2.134-2.504-1.353 0-1.984.76-2.466 1.947m8.678-2.949h1.633v1.78c.889-.797 2.039-2.002 3.708-2.002 1.688 0 2.726 1.02 2.708 3.096v8.086h-1.633v-7.492c0-1.113-.259-2.207-1.613-2.207-1.52 0-2.503 1.113-3.17 1.892v7.807h-1.633m14.074-5.341c1.373 0 2.486-.816 2.486-2.429 0-1.52-1.058-2.3-2.486-2.3-1.428 0-2.485.78-2.485 2.3 0 1.613 1.113 2.429 2.485 2.429zm-1.168 3.931c-.927.593-1.631 1.261-1.631 2.206 0 1.373 1.854 1.726 3.17 1.726 1.836 0 2.837-.78 2.837-1.781 0-.705-.277-1.186-1.76-1.539l-2.616-.612zm6.287-8.437h-1.966c.631.612.891 1.205.891 2.206 0 1.558-1.021 3.413-4.136 3.413a3.22 3.22 0 01-.853-.093c-.371.315-.538.5-.538.834 0 .39.148.538 1.428.835l1.781.408c1.63.37 3.115.908 3.115 2.874 0 2.336-2.523 3.115-4.748 3.115-2.299 0-4.45-.741-4.45-2.744 0-1.446.927-2.188 2.077-2.893-.26-.13-.76-.371-.76-1.094 0-.798.519-1.187 1.093-1.613-.704-.26-2.095-1.188-2.095-3.078 0-1.892 1.316-3.505 3.987-3.505.779 0 1.335.092 1.817.223h3.357m8.01 4.672c0-1.965-.89-3.597-2.632-3.597-1.707 0-2.635 1.353-2.856 3.598h5.488zm-5.488 1.224c.073 2.949 1.446 3.987 2.911 3.987 1.78 0 2.466-1.334 2.632-1.928l1.428.5c-.704 1.688-2.057 2.726-4.06 2.726-3.894 0-4.618-3.486-4.618-5.711 0-2.207.724-5.693 4.618-5.693 3.151 0 4.283 2.726 4.283 5.304v.815" fill="#555253"/></svg>