<svg width="165" height="47" fill="none" xmlns="http://www.w3.org/2000/svg"><g clip-path="url(#clip0)" fill-rule="evenodd" clip-rule="evenodd"><path d="M121.525 35.505c-5.626 0-9.121-3.268-9.121-8.532 0-5.469 3.225-8.867 8.418-8.867l.439-.003c.649 0 1.547.02 2.772.177v-6.6h3.674v23.231s-3.489.594-6.182.594zm-.032-14.502c-3.555 0-5.283 1.924-5.283 5.88 0 3.549 2.083 5.754 5.437 5.754.643 0 1.381-.04 2.386-.13V21.239c-1.006-.16-1.813-.235-2.54-.235zM71.257 34.975l-9.915-17.348-.003 17.348h-3.454V13.017h4.835l9.915 17.192-.004-17.192h3.499v21.958h-4.873zm31.576.337c-1.668 0-3.41-.188-5.483-.587l-.22-.044v-3.067l.328.072c1.825.389 3.403.725 4.979.725 1.277 0 4.246-.203 4.246-2.083 0-1.578-2.052-1.973-3.701-2.29l-.104-.02c-.306-.06-.596-.118-.844-.18-2.417-.63-4.996-1.574-4.996-4.822 0-3.167 2.502-4.984 6.863-4.984 2.092 0 3.612.227 4.832.409l.597.09v2.973l-.319-.055c-1.381-.256-3-.518-4.56-.518-1.728 0-3.788.325-3.788 1.87 0 1.281 1.683 1.648 3.632 2.072 2.722.595 6.102 1.334 6.102 5.058 0 3.42-2.757 5.38-7.564 5.38zm35.177 0c-3.803 0-7.321-.67-7.321-5.533 0-5.291 5.441-5.291 8.693-5.291.325 0 1.853.07 2.324.09-.004-2.968-.044-3.676-4.338-3.676-1.703 0-3.594.339-5.263.638l-.318.057v-2.932l.217-.044a28.11 28.11 0 015.699-.589c4.162 0 7.689.421 7.689 5.596v11.289l-.254.026c-2.882.324-5.172.369-7.128.369zm1.279-8.207c-3.134 0-5.076.462-5.076 2.764 0 2.664 2.479 2.886 4.803 2.886.87 0 2.432-.11 2.909-.147v-5.413c-.674-.026-2.424-.09-2.636-.09zm-52.778 8.207c-3.802 0-7.32-.67-7.32-5.533 0-5.291 5.441-5.291 8.693-5.291.324 0 1.853.07 2.323.09-.004-2.968-.044-3.676-4.338-3.676-1.702 0-3.593.339-5.262.638l-.319.057v-2.932l.218-.044a28.108 28.108 0 015.7-.589c4.161 0 7.688.421 7.688 5.596v11.289l-.254.026c-2.882.324-5.172.369-7.129.369zm1.28-8.207c-3.134 0-5.076.462-5.076 2.764 0 2.664 2.479 2.886 4.803 2.886.87 0 2.432-.11 2.909-.147v-5.413a237.56 237.56 0 00-2.636-.09zm72.216 15.328v-7.201c-1.434.202-2.196.202-2.81.202-1.453 0-3.067-.317-4.319-.85-2.796-1.163-4.466-4.127-4.466-7.927 0-1.9.461-5.369 3.547-7.238 1.545-.927 3.376-1.324 6.122-1.324.986 0 2.315.077 3.599.151l2.083.108v22.412l-3.756 1.667zm-2.201-21.44c-3.726 0-5.618 1.906-5.618 5.664 0 4.833 2.823 5.848 5.192 5.848.576 0 1.226 0 2.661-.182V21.098c-1.124-.076-1.64-.104-2.235-.104z" fill="#CFCFCF"/><path d="M41.488 0h13.068l-12.14 33.437a2.327 2.327 0 01-2.189 1.538H27.395v-.02a2.325 2.325 0 001.953-1.518L41.487 0zM26.351 34.464a2.202 2.202 0 01-2.02-1.33l-2.616-7.194 4.452-12.263a2.44 2.44 0 01.29-.544 2.196 2.196 0 011.793-.93c.915 0 1.7.56 2.033 1.355l2.604 7.165-4.453 12.269c-.102.28-.247.485-.29.543a2.194 2.194 0 01-1.793.93zm.95-22.773v.007c-.963.04-1.78.662-2.092 1.53l-12.14 33.436H-.001L12.14 13.23a2.329 2.329 0 012.19-1.538h12.973z" fill="#0090BA"/></g><defs><clipPath id="clip0"><path fill="#fff" d="M0 0h164.5v47H0z"/></clipPath></defs></svg>