<svg width="137" height="38" fill="none" xmlns="http://www.w3.org/2000/svg"><path d="M28.49 25.933c0 3.639-1.345 6.55-4.044 8.75-2.69 2.196-6.261 3.293-10.729 3.293-4.352 0-8.415-1.085-12.186-3.239l2.681-5.605c3.665 1.911 6.939 2.867 9.823 2.867 4.181 0 6.27-1.621 6.27-4.88 0-2.24-1.555-3.776-4.68-4.633l-3.959-1.08c-3.42-.934-5.781-2.443-7.045-4.535-1.002-1.641-1.496-3.467-1.496-5.454 0-3.263 1.183-5.93 3.573-7.978C9.084 1.375 12.158.352 15.945.352c4.625 0 8.6 1.203 11.932 3.595l-3.394 5.148c-3.02-1.817-5.806-2.728-8.335-2.728-1.48 0-2.682.389-3.608 1.166-.934.772-1.389 1.76-1.389 2.957 0 .927.29 1.651.876 2.187.582.534 1.61 1.005 3.09 1.414l4.325 1.186c6.034 1.651 9.048 5.195 9.048 10.656zm30.534 8.65c-3.674 2.177-7.708 3.262-12.112 3.262-5.394 0-9.54-1.864-12.436-5.576-2.592-3.317-3.884-7.57-3.884-12.754 0-7.657 2.538-13.182 7.61-16.584C40.75 1.222 43.71.355 47.066.355c4.511 0 8.381 1.409 11.6 4.213l-3.887 4.56c-2.306-1.885-4.853-2.838-7.608-2.838-2.203 0-3.956.623-5.249 1.835-2.056 2.001-3.093 5.929-3.093 11.764 0 5.14.903 8.609 2.718 10.393 1.4 1.364 3.312 2.049 5.73 2.049 1.613 0 2.99-.303 4.142-.892v-8.296H45.86l-.953-5.989h14.116v17.429zm32.071 2.614h-8.686l-6.431-12.602-6.383 12.602H60.64l11.217-19.144-9.67-16.622h8.801l4.827 9.628 4.897-9.628h8.591L79.996 17.59l11.099 19.608z" fill="#1D2170"/><path d="M97.581 0h37.99v38h-37.99V0z" fill="#fff"/><path d="M98.045.463h37.063v7.415H98.045V.463z" fill="url(#paint0_linear)"/><path d="M98.045 7.878h37.063v7.415H98.045V7.878z" fill="url(#paint1_linear)"/><path d="M98.045 15.293h37.063v7.414H98.045v-7.414z" fill="url(#paint2_linear)"/><path d="M98.045 22.707h37.063v7.415H98.045v-7.415z" fill="url(#paint3_linear)"/><path d="M98.045 30.122h37.063v7.415H98.045v-7.415z" fill="url(#paint4_linear)"/><defs><linearGradient id="paint0_linear" x1="98.045" y1=".463" x2="135.108" y2=".463" gradientUnits="userSpaceOnUse"><stop stop-color="#BDD831"/><stop offset=".36" stop-color="#BDD831"/><stop offset=".72" stop-color="#1D2170"/><stop offset="1" stop-color="#1D2170"/></linearGradient><linearGradient id="paint1_linear" x1="98.045" y1="7.878" x2="135.108" y2="7.878" gradientUnits="userSpaceOnUse"><stop stop-color="#1D2170"/><stop offset=".28" stop-color="#1D2170"/><stop offset=".64" stop-color="#BDD831"/><stop offset="1" stop-color="#BDD831"/></linearGradient><linearGradient id="paint2_linear" x1="98.045" y1="15.293" x2="135.108" y2="15.293" gradientUnits="userSpaceOnUse"><stop stop-color="#BDD831"/><stop offset=".36" stop-color="#BDD831"/><stop offset=".72" stop-color="#1D2170"/><stop offset="1" stop-color="#1D2170"/></linearGradient><linearGradient id="paint3_linear" x1="98.045" y1="22.707" x2="135.108" y2="22.707" gradientUnits="userSpaceOnUse"><stop stop-color="#1D2170"/><stop offset=".28" stop-color="#1D2170"/><stop offset=".64" stop-color="#BDD831"/><stop offset="1" stop-color="#BDD831"/></linearGradient><linearGradient id="paint4_linear" x1="98.045" y1="30.122" x2="135.108" y2="30.122" gradientUnits="userSpaceOnUse"><stop stop-color="#BDD831"/><stop offset=".36" stop-color="#BDD831"/><stop offset=".72" stop-color="#1D2170"/><stop offset="1" stop-color="#1D2170"/></linearGradient></defs></svg>