<svg width="170" height="38" fill="none" xmlns="http://www.w3.org/2000/svg"><g clip-path="url(#clip0)"><path d="M123.519 37.883l7.452-22.73h12.262l-7.45 22.73h-12.264zm9.341-28.566l3.044-9.315h12.263l-3.043 9.315H132.86zM81.934 38L94.32.117h12.26l-3.981 12.178h13.972c3.642.022 6.148 2.385 6.433 6.013a10.483 10.483 0 01-.438 3.734s-.088.326-.11.399l-1.773 5.415C118.855 33.45 113.241 38 108.169 38H81.934zm14.33-6.332h7.443c1.859 0 3.923-1.67 4.593-3.726l1.827-5.59c.673-2.052-.294-3.723-2.156-3.723h-7.443l-4.264 13.04zm55.754 6.214a20.088 20.088 0 01-.952-.085 7.23 7.23 0 01-2.694-.921c-.074-.042-.144-.096-.214-.145-1.577-1.119-2.423-2.963-2.571-4.857a10.487 10.487 0 01.433-3.735c.097-.346.088-.32.113-.401L155.204 0h12.264l-3.985 12.181h5.574l-2.07 6.331h-5.573l-1.697 5.187c-.465 1.425-.909 2.815-1.215 4.18-.309 1.372-.142 2.371.494 2.97.769.727 1.967.82 2.922.82h4.028l-2.032 6.214-11.896-.001z" fill="#093687"/><path d="M39.544 38l9.39-28.645 4.52 1.484L50.224.116h27.942c5.07 0 7.71 4.55 5.88 10.144l-1.77 5.413c-.022.07-.048.138-.075.208l-.075.198a14.936 14.936 0 01-2.005 3.728c-2.658 3.63-6.707 5.988-10.312 6.008l-.268.004H55.786L51.803 38h-12.26zm18.312-18.512H65.3c1.862 0 3.921-1.67 4.591-3.725l1.829-5.59c.672-2.054-.296-3.725-2.156-3.725H62.12l-4.263 13.04zM7.322 37.998a8.236 8.236 0 01-.952-.086 6.498 6.498 0 01-1.541-.383c-.985-.372-1.86-.878-2.523-1.724a6.33 6.33 0 01-.938-1.702 7.2 7.2 0 01-.28-.959c-.36-1.64-.21-3.286.24-4.89.038-.14.223-.74.223-.74L10.509.115h12.369l-9.1 27.827c-.498 1.521-.114 2.876.973 3.447.35.192.744.288 1.143.278h6.111L32.322.116H46.3L36.057 10.84l5.531-1.484L32.196 38l-24.874-.002z" fill="#0062DF"/></g><defs><clipPath id="clip0"><path fill="#fff" transform="translate(.887)" d="M0 0h168.17v38H0z"/></clipPath></defs></svg>